TITLE ""
FILE "1Q_t_1410-1419.mp3" MP3
  TRACK 01 AUDIO
    TITLE "1Q_t_1410-1419_01"
    INDEX 01 00:00:00
  TRACK 02 AUDIO
    TITLE "1Q_t_1410-1419_02"
    INDEX 01 00:00:10
  TRACK 03 AUDIO
    TITLE "1Q_t_1410-1419_03"
    INDEX 01 00:01:33
  TRACK 04 AUDIO
    TITLE "1Q_t_1410-1419_04"
    INDEX 01 00:01:45
  TRACK 05 AUDIO
    TITLE "1Q_t_1410-1419_05"
    INDEX 01 00:04:43
  TRACK 06 AUDIO
    TITLE "1Q_t_1410-1419_06"
    INDEX 01 00:04:51
  TRACK 07 AUDIO
    TITLE "1Q_t_1410-1419_07"
    INDEX 01 00:09:41
  TRACK 08 AUDIO
    TITLE "1Q_t_1410-1419_08"
    INDEX 01 00:10:11
  TRACK 09 AUDIO
    TITLE "1Q_t_1410-1419_09"
    INDEX 01 00:11:06
  TRACK 10 AUDIO
    TITLE "1Q_t_1410-1419_10"
    INDEX 01 00:11:16
  TRACK 11 AUDIO
    TITLE "1Q_t_1410-1419_11"
    INDEX 01 00:12:43
  TRACK 12 AUDIO
    TITLE "1Q_t_1410-1419_12"
    INDEX 01 00:12:49
  TRACK 13 AUDIO
    TITLE "1Q_t_1410-1419_13"
    INDEX 01 00:16:13
  TRACK 14 AUDIO
    TITLE "1Q_t_1410-1419_14"
    INDEX 01 00:16:60
  TRACK 15 AUDIO
    TITLE "1Q_t_1410-1419_15"
    INDEX 01 00:18:04
  TRACK 16 AUDIO
    TITLE "1Q_t_1410-1419_16"
    INDEX 01 00:18:12
  TRACK 17 AUDIO
    TITLE "1Q_t_1410-1419_17"
    INDEX 01 00:22:28
  TRACK 18 AUDIO
    TITLE "1Q_t_1410-1419_18"
    INDEX 01 00:22:33
  TRACK 19 AUDIO
    TITLE "1Q_t_1410-1419_19"
    INDEX 01 00:27:29
  TRACK 20 AUDIO
    TITLE "1Q_t_1410-1419_20"
    INDEX 01 00:27:72
  TRACK 21 AUDIO
    TITLE "1Q_t_1410-1419_21"
    INDEX 01 00:29:12
  TRACK 22 AUDIO
    TITLE "1Q_t_1410-1419_22"
    INDEX 01 00:29:20
  TRACK 23 AUDIO
    TITLE "1Q_t_1410-1419_23"
    INDEX 01 00:32:46
  TRACK 24 AUDIO
    TITLE "1Q_t_1410-1419_24"
    INDEX 01 00:32:55
  TRACK 25 AUDIO
    TITLE "1Q_t_1410-1419_25"
    INDEX 01 00:38:01
  TRACK 26 AUDIO
    TITLE "1Q_t_1410-1419_26"
    INDEX 01 00:38:46
  TRACK 27 AUDIO
    TITLE "1Q_t_1410-1419_27"
    INDEX 01 00:39:71
  TRACK 28 AUDIO
    TITLE "1Q_t_1410-1419_28"
    INDEX 01 00:40:02
  TRACK 29 AUDIO
    TITLE "1Q_t_1410-1419_29"
    INDEX 01 00:44:57
  TRACK 30 AUDIO
    TITLE "1Q_t_1410-1419_30"
    INDEX 01 00:44:62
  TRACK 31 AUDIO
    TITLE "1Q_t_1410-1419_31"
    INDEX 01 00:49:09
  TRACK 32 AUDIO
    TITLE "1Q_t_1410-1419_32"
    INDEX 01 00:49:52
  TRACK 33 AUDIO
    TITLE "1Q_t_1410-1419_33"
    INDEX 01 00:50:61
  TRACK 34 AUDIO
    TITLE "1Q_t_1410-1419_34"
    INDEX 01 00:50:69
  TRACK 35 AUDIO
    TITLE "1Q_t_1410-1419_35"
    INDEX 01 00:53:59
  TRACK 36 AUDIO
    TITLE "1Q_t_1410-1419_36"
    INDEX 01 00:53:65
  TRACK 37 AUDIO
    TITLE "1Q_t_1410-1419_37"
    INDEX 01 00:58:39
  TRACK 38 AUDIO
    TITLE "1Q_t_1410-1419_38"
    INDEX 01 00:59:11
  TRACK 39 AUDIO
    TITLE "1Q_t_1410-1419_39"
    INDEX 01 01:00:26
  TRACK 40 AUDIO
    TITLE "1Q_t_1410-1419_40"
    INDEX 01 01:00:36
  TRACK 41 AUDIO
    TITLE "1Q_t_1410-1419_41"
    INDEX 01 01:01:30
  TRACK 42 AUDIO
    TITLE "1Q_t_1410-1419_42"
    INDEX 01 01:01:37
  TRACK 43 AUDIO
    TITLE "1Q_t_1410-1419_43"
    INDEX 01 01:06:21
  TRACK 44 AUDIO
    TITLE "1Q_t_1410-1419_44"
    INDEX 01 01:06:66
  TRACK 45 AUDIO
    TITLE "1Q_t_1410-1419_45"
    INDEX 01 01:08:06
  TRACK 46 AUDIO
    TITLE "1Q_t_1410-1419_46"
    INDEX 01 01:08:16
  TRACK 47 AUDIO
    TITLE "1Q_t_1410-1419_47"
    INDEX 01 01:12:35
  TRACK 48 AUDIO
    TITLE "1Q_t_1410-1419_48"
    INDEX 01 01:12:41
  TRACK 49 AUDIO
    TITLE "1Q_t_1410-1419_49"
    INDEX 01 01:16:68
  TRACK 50 AUDIO
    TITLE "1Q_t_1410-1419_50"
    INDEX 01 01:17:36
  TRACK 51 AUDIO
    TITLE "1Q_t_1410-1419_51"
    INDEX 01 01:18:38
  TRACK 52 AUDIO
    TITLE "1Q_t_1410-1419_52"
    INDEX 01 01:18:44
  TRACK 53 AUDIO
    TITLE "1Q_t_1410-1419_53"
    INDEX 01 01:22:08
  TRACK 54 AUDIO
    TITLE "1Q_t_1410-1419_54"
    INDEX 01 01:22:14
  TRACK 55 AUDIO
    TITLE "1Q_t_1410-1419_55"
    INDEX 01 01:26:43
  TRACK 56 AUDIO
    TITLE "1Q_t_1410-1419_56"
    INDEX 01 01:27:13
  TRACK 57 AUDIO
    TITLE "1Q_t_1410-1419_57"
    INDEX 01 01:28:46
  TRACK 58 AUDIO
    TITLE "1Q_t_1410-1419_58"
    INDEX 01 01:28:54
  TRACK 59 AUDIO
    TITLE "1Q_t_1410-1419_59"
    INDEX 01 01:30:21
  TRACK 60 AUDIO
    TITLE "1Q_t_1410-1419_60"
    INDEX 01 01:30:27
  TRACK 61 AUDIO
    TITLE "1Q_t_1410-1419_61"
    INDEX 01 01:36:02
